<svg xmlns="http://www.w3.org/2000/svg" version="1.1" xmlns:xlink="http://www.w3.org/1999/xlink" viewBox="0 0 200 200" width="200" height="200"><rect width="200" height="200" fill="url('#gradient')"></rect><defs><linearGradient id="gradient" gradientTransform="rotate(45 0.5 0.5)"><stop offset="0%" stop-color="#0e5278"></stop><stop offset="100%" stop-color="#0e5278"></stop></linearGradient></defs><g><g fill="#ffffff" transform="matrix(4.487947406866326,0,0,4.487947406866326,5.189180095061673,131.91356267782785)" stroke="#0e5278" stroke-width="0.25"><path d="M1.07-14.22L5.58-14.22L8.75-4.33L11.91-14.22L16.43-14.22L16.43 0L12.99 0L12.99-3.32L13.32-10.12L9.88 0L7.62 0L4.17-10.13L4.50-3.32L4.50 0L1.07 0L1.07-14.22ZM27.56-8.30L27.56-5.66L22.03-5.66L22.03 0L18.60 0L18.60-14.22L28.12-14.22L28.12-11.57L22.03-11.57L22.03-8.30L27.56-8.30ZM41.18-7.60L41.18-1.76Q40.39-0.88 38.87-0.34Q37.34 0.20 35.53 0.20L35.53 0.20Q32.73 0.20 31.06-1.51Q29.39-3.22 29.28-6.27L29.28-6.27L29.27-7.50Q29.27-9.60 30.01-11.17Q30.75-12.73 32.13-13.58Q33.52-14.42 35.33-14.42L35.33-14.42Q37.99-14.42 39.46-13.21Q40.93-11.99 41.17-9.58L41.17-9.58L37.87-9.58Q37.70-10.77 37.11-11.28Q36.52-11.79 35.45-11.79L35.45-11.79Q34.16-11.79 33.46-10.69Q32.75-9.60 32.74-7.57L32.74-7.57L32.74-6.71Q32.74-4.58 33.47-3.51Q34.20-2.44 35.76-2.44L35.76-2.44Q37.10-2.44 37.75-3.04L37.75-3.04L37.75-5.24L35.37-5.24L35.37-7.60L41.18-7.60Z"></path></g></g></svg>